<svg width="37" height="40" viewBox="0 0 37 40" fill="none" xmlns="http://www.w3.org/2000/svg">
<path d="M36.7176 11.7823V20.7438C36.3233 20.3098 35.8909 19.9268 35.4076 19.5949C34.352 18.8672 33.2709 18.2928 32.1263 17.8843C30.9943 17.4758 29.9514 17.1439 29.023 16.8885L22.7529 15.1779C21.977 14.9737 21.2267 14.7184 20.489 14.4248C19.7513 14.1184 19.1409 13.7226 18.6576 13.2248C18.1743 12.7269 17.9326 12.0886 17.9326 11.2972C17.9326 10.4418 18.2251 9.70144 18.8229 9.08868C19.4207 8.46316 20.1838 7.99083 21.1249 7.65892C22.0788 7.32702 23.0835 7.18659 24.1519 7.22489C25.2456 7.25042 26.2758 7.4802 27.2806 7.90147C28.2726 8.32274 29.1247 8.93549 29.8497 9.73973C30.5619 10.544 31.0579 11.5269 31.325 12.7014L36.7176 11.7823Z" fill="#03110D"/>
<path d="M12.6023 5.57862C11.3803 7.19987 10.7693 9.21685 10.7693 11.6551C10.7693 13.3785 11.0621 14.8082 11.6349 15.9444C12.2077 17.0805 12.9333 17.9869 13.8117 18.6762C14.6773 19.3656 15.5811 19.889 16.5103 20.2592C17.4396 20.6294 18.2543 20.9103 18.9544 21.1145L28.3362 23.8847C29.049 24.1017 29.6219 24.3442 30.0801 24.6123C30.5511 24.8804 30.9076 25.174 31.1494 25.4676C31.404 25.774 31.5822 26.0931 31.6968 26.4378C31.7986 26.7825 31.8623 27.1399 31.8623 27.5101C31.8623 28.5186 31.5186 29.3612 30.8439 30.0505C30.1565 30.7399 29.2909 31.2633 28.2471 31.6207C27.1905 31.9654 26.0958 32.1441 24.9756 32.1441C22.9643 32.1441 21.1821 31.5824 19.6037 30.459C18.0379 29.3356 16.9941 27.7271 16.4976 25.6463L9.35629 26.7059C9.72545 29.1569 10.6038 31.2633 11.9913 33.0377C13.3661 34.8121 15.1355 36.1653 17.2869 37.11C19.4382 38.0674 21.8441 38.5397 24.53 38.5397C26.3631 38.5397 28.158 38.2972 29.8892 37.8376C31.6204 37.3653 33.1735 36.6504 34.5483 35.7057C35.3884 35.1313 36.1267 34.4419 36.7505 33.676V39.3695H0V0H36.7505V6.85519C36.4704 6.44669 36.1776 6.06372 35.8721 5.69351C34.5483 4.12333 32.9061 2.93611 30.9585 2.10634C28.9981 1.28934 26.7704 0.8553 24.2754 0.829769C21.7931 0.804238 19.54 1.19998 17.5033 1.97869C15.4538 2.77016 13.8244 3.97014 12.6023 5.57862Z" fill="#03110D"/>
</svg>
