<svg width="28" height="36" viewBox="0 0 28 36" fill="none" xmlns="http://www.w3.org/2000/svg">
<path d="M21.4848 22.6648L20.1919 20.0028L13.1951 21.3465L14.3739 23.793L20.2933 36H28L21.4848 22.6648ZM26.517 6.41408C25.8705 4.76619 24.8565 3.40986 23.4876 2.31972C22.1059 1.24225 20.344 0.532394 18.2019 0.202817C17.7329 0.114084 17.2005 0.0633787 16.6048 0.0380266C16.0217 0.0126745 15.5401 0 15.1978 0H0V36H6.79402V23.793H15.1978L18.2019 23.6028C19.4187 23.4127 20.5215 23.0958 21.4848 22.6648C23.0693 21.9676 24.3115 20.9535 25.2494 19.6352C26.7451 17.493 27.493 14.9197 27.493 11.9028C27.493 9.88732 27.1761 8.04929 26.517 6.41408ZM6.79402 6.3507H14.8936C15.2485 6.3507 15.6288 6.36338 16.0471 6.40141C16.4654 6.42676 16.8456 6.50282 17.2005 6.60423C18.1132 6.84507 18.823 7.26338 19.3173 7.85915C19.8244 8.45493 20.1666 9.11408 20.3567 9.83662C20.5469 10.5592 20.6483 11.2437 20.6483 11.9028C20.6483 12.562 20.5469 13.2338 20.3567 13.9563C20.1666 14.6915 19.8244 15.338 19.3173 15.9338C18.823 16.5296 18.1132 16.9479 17.2005 17.2014C16.8456 17.3028 16.4654 17.3662 16.0471 17.3915C15.6288 17.4296 15.2485 17.4423 14.8936 17.4423H6.79402V6.3507Z" fill="#03110D"/>
</svg>
