<svg width="24" height="24" viewBox="0 0 24 24" fill="none" xmlns="http://www.w3.org/2000/svg">
<path d="M10 11.6V8C10 7.71667 9.90417 7.47917 9.7125 7.2875C9.52083 7.09583 9.28333 7 9 7C8.71667 7 8.47917 7.09583 8.2875 7.2875C8.09583 7.47917 8 7.71667 8 8V11.975C8 12.1083 8.025 12.2375 8.075 12.3625C8.125 12.4875 8.2 12.6 8.3 12.7L11.1 15.5C11.2833 15.6833 11.5167 15.775 11.8 15.775C12.0833 15.775 12.3167 15.6833 12.5 15.5C12.6833 15.3167 12.775 15.0833 12.775 14.8C12.775 14.5167 12.6833 14.2833 12.5 14.1L10 11.6ZM22 12C22 10.8 21.7208 9.6875 21.1625 8.6625C20.6042 7.6375 19.8333 6.80833 18.85 6.175C18.6167 6.025 18.4583 5.81667 18.375 5.55C18.2917 5.28333 18.3083 5.025 18.425 4.775C18.5583 4.50833 18.7583 4.33333 19.025 4.25C19.2917 4.16667 19.5417 4.2 19.775 4.35C21.075 5.16667 22.1042 6.25 22.8625 7.6C23.6208 8.95 24 10.4167 24 12C24 13.5833 23.6208 15.05 22.8625 16.4C22.1042 17.75 21.075 18.8333 19.775 19.65C19.5417 19.8 19.2917 19.8333 19.025 19.75C18.7583 19.6667 18.5583 19.4917 18.425 19.225C18.3083 18.975 18.2917 18.7167 18.375 18.45C18.4583 18.1833 18.6167 17.975 18.85 17.825C19.8333 17.1917 20.6042 16.3625 21.1625 15.3375C21.7208 14.3125 22 13.2 22 12ZM9 21C7.75 21 6.57917 20.7625 5.4875 20.2875C4.39583 19.8125 3.44583 19.1708 2.6375 18.3625C1.82917 17.5542 1.1875 16.6042 0.7125 15.5125C0.2375 14.4208 0 13.25 0 12C0 10.75 0.2375 9.57917 0.7125 8.4875C1.1875 7.39583 1.82917 6.44583 2.6375 5.6375C3.44583 4.82917 4.39583 4.1875 5.4875 3.7125C6.57917 3.2375 7.75 3 9 3C10.25 3 11.4208 3.2375 12.5125 3.7125C13.6042 4.1875 14.5542 4.82917 15.3625 5.6375C16.1708 6.44583 16.8125 7.39583 17.2875 8.4875C17.7625 9.57917 18 10.75 18 12C18 13.25 17.7625 14.4208 17.2875 15.5125C16.8125 16.6042 16.1708 17.5542 15.3625 18.3625C14.5542 19.1708 13.6042 19.8125 12.5125 20.2875C11.4208 20.7625 10.25 21 9 21Z" fill="#03110D"/>
</svg>
