<svg width="16" height="16" viewBox="0 0 16 16" fill="none" xmlns="http://www.w3.org/2000/svg">
<mask id="mask0_2690_129642" style="mask-type:alpha" maskUnits="userSpaceOnUse" x="0" y="0" width="16" height="16">
<rect width="16" height="16" fill="#03110D"/>
</mask>
<g mask="url(#mask0_2690_129642)">
<path d="M4.5 10.7C4.35 10.7 4.22917 10.65 4.1375 10.55C4.04583 10.45 4 10.3333 4 10.2C4 10.1667 4.05 10.05 4.15 9.85L7.775 6.225C7.85833 6.14167 7.94167 6.08333 8.025 6.05C8.10833 6.01667 8.2 6 8.3 6C8.4 6 8.49167 6.01667 8.575 6.05C8.65833 6.08333 8.74167 6.14167 8.825 6.225L12.45 9.85C12.5 9.9 12.5375 9.95417 12.5625 10.0125C12.5875 10.0708 12.6 10.1333 12.6 10.2C12.6 10.3333 12.5542 10.45 12.4625 10.55C12.3708 10.65 12.25 10.7 12.1 10.7H4.5Z" fill="#616262"/>
</g>
</svg>
