<svg preserveAspectRatio="none" width="100%" height="100%" overflow="visible" style="display: block;" viewBox="0 0 137 48" fill="none" xmlns="http://www.w3.org/2000/svg">
<g id="SSRN logo">
<g id="Group 1">
<path id="Vector" d="M36.914 16.0979V25.0595C36.5197 24.6255 36.0873 24.2425 35.604 23.9106C34.5484 23.1829 33.4673 22.6085 32.3226 22.2C31.1907 21.7915 30.1478 21.4596 29.2194 21.2042L22.9492 19.4936C22.1734 19.2894 21.423 19.0341 20.6854 18.7405C19.9477 18.4341 19.3372 18.0383 18.8539 17.5405C18.3707 17.0426 18.129 16.4043 18.129 15.6129C18.129 14.7575 18.4215 14.0171 19.0193 13.4044C19.617 12.7789 20.3801 12.3065 21.3213 11.9746C22.2752 11.6427 23.2799 11.5023 24.3483 11.5406C25.442 11.5661 26.4722 11.7959 27.477 12.2172C28.469 12.6384 29.3211 13.2512 30.0461 14.0554C30.7583 14.8597 31.2543 15.8426 31.5214 17.0171L36.914 16.0979Z" fill="#03110D"/>
<path id="Vector_2" d="M12.7985 9.89388C11.5765 11.5151 10.9655 13.5321 10.9655 15.9704C10.9655 17.6937 11.2582 19.1235 11.8311 20.2596C12.4039 21.3958 13.1295 22.3022 14.0079 22.9915C14.8735 23.6809 15.7773 24.2043 16.7065 24.5745C17.6358 24.9447 18.4505 25.2255 19.1506 25.4298L28.5324 28.1999C29.2452 28.4169 29.8181 28.6595 30.2763 28.9276C30.7473 29.1956 31.1038 29.4893 31.3456 29.7829C31.6002 30.0893 31.7784 30.4084 31.893 30.7531C31.9948 31.0977 32.0585 31.4552 32.0585 31.8254C32.0585 32.8339 31.7148 33.6764 31.0401 34.3658C30.3527 35.0551 29.4871 35.5785 28.4433 35.9359C27.3867 36.2806 26.292 36.4593 25.1718 36.4593C23.1605 36.4593 21.3783 35.8977 19.7998 34.7743C18.2341 33.6509 17.1903 32.0424 16.6938 29.9616L9.55248 31.0211C9.92164 33.4722 10.8 35.5785 12.1875 37.3529C13.5623 39.1274 15.3317 40.4805 17.483 41.4252C19.6344 42.3826 22.0403 42.855 24.7262 42.855C26.5593 42.855 28.3542 42.6124 30.0854 42.1529C31.8166 41.6805 33.3696 40.9656 34.7444 40.021C35.5846 39.4465 36.3229 38.7572 36.9467 37.9912V43.6847H0.196188V4.31526H36.9467V11.1704C36.6666 10.7619 36.3738 10.379 36.0683 10.0088C34.7444 8.43859 33.1023 7.25137 31.1547 6.4216C29.1943 5.60459 26.9666 5.17056 24.4716 5.14503C21.9893 5.1195 19.7362 5.51523 17.6994 6.29394C15.65 7.08542 14.0206 8.2854 12.7985 9.89388Z" fill="#03110D"/>
</g>
<path id="Vector_3" d="M69.2371 26.8177C68.5777 25.6085 67.7317 24.6438 66.7116 23.9105C65.6914 23.1773 64.6215 22.5985 63.5142 22.1868C62.3945 21.7752 61.3868 21.4407 60.4662 21.1835L54.3328 19.4598C53.5863 19.2539 52.8399 18.9967 52.1307 18.7008C51.4091 18.3921 50.812 17.9933 50.3392 17.4916C49.854 16.99 49.6176 16.3468 49.6176 15.5493C49.6176 14.6874 49.9162 13.9413 50.4885 13.3239C51.0732 12.6936 51.8321 12.2176 52.7528 11.8832C53.6734 11.5487 54.6562 11.4072 55.7137 11.4458C56.7712 11.4715 57.7914 11.7031 58.7618 12.1276C59.7322 12.5521 60.5782 13.1695 61.2749 13.9799C61.984 14.7903 62.4692 15.7808 62.7305 16.9642L69.9338 15.7036C69.3615 13.4139 68.4284 11.4844 67.147 9.90217C65.8531 8.31996 64.2483 7.12365 62.3323 6.28752C60.4164 5.46426 58.2393 5.0269 55.8008 5.00117C53.3873 4.97544 51.1728 5.37421 49.1822 6.15889C47.1916 6.95643 45.5867 8.1656 44.3924 9.7864C43.1981 11.4201 42.6009 13.4525 42.6009 15.9094C42.6009 17.646 42.887 19.0867 43.4469 20.2316C44.0192 21.3764 44.7283 22.2897 45.5743 22.9844C46.4203 23.679 47.3036 24.2064 48.2118 24.5794C49.12 24.9525 49.9162 25.2355 50.6005 25.4413L59.7819 28.2327C60.4662 28.4514 61.0385 28.6958 61.4864 28.9659C61.9342 29.236 62.2826 29.5319 62.5314 29.8278C62.7802 30.1365 62.9544 30.4581 63.0539 30.8054C63.1659 31.1527 63.2157 31.5129 63.2157 31.8859C63.2157 32.9021 62.8797 33.7511 62.2204 34.4458C61.561 35.1404 60.715 35.6678 59.6824 36.028C58.6498 36.3753 57.5923 36.5554 56.4975 36.5554C54.5318 36.5554 52.7776 35.9894 51.2474 34.8574C49.7047 33.7254 48.697 32.1046 48.1994 30.0078L41.2324 31.0755C41.5932 33.5453 42.4516 35.6678 43.7952 37.4558C45.1513 39.2438 46.8682 40.6074 48.9707 41.5593C51.0732 42.524 53.437 43 56.0496 43C57.8536 43 59.5953 42.7556 61.2873 42.2925C62.9793 41.8166 64.4971 41.0962 65.8407 40.1443C67.1843 39.1924 68.2543 37.9832 69.038 36.5168C69.8343 35.0503 70.2324 33.3395 70.2324 31.3842C70.2324 29.5319 69.8965 28.014 69.2371 26.8177Z" fill="#03110D"/>
<path id="Vector_4" d="M96.0029 28.6648L94.71 26.0028L87.7132 27.3465L88.892 29.793L94.8114 42H102.518L96.0029 28.6648ZM101.035 12.4141C100.389 10.7662 99.3746 9.40986 98.0057 8.31972C96.624 7.24225 94.8621 6.53239 92.72 6.20282C92.251 6.11408 91.7186 6.06338 91.1229 6.03803C90.5398 6.01267 90.0582 6 89.7159 6H74.5181V42H81.3121V29.793H89.7159L92.72 29.6028C93.9368 29.4127 95.0396 29.0958 96.0029 28.6648C97.5874 27.9676 98.8296 26.9535 99.7675 25.6352C101.263 23.493 102.011 20.9197 102.011 17.9028C102.011 15.8873 101.694 14.0493 101.035 12.4141ZM81.3121 12.3507H89.4117C89.7666 12.3507 90.1469 12.3634 90.5652 12.4014C90.9835 12.4268 91.3637 12.5028 91.7186 12.6042C92.6313 12.8451 93.3411 13.2634 93.8354 13.8592C94.3425 14.4549 94.6847 15.1141 94.8748 15.8366C95.065 16.5592 95.1664 17.2437 95.1664 17.9028C95.1664 18.562 95.065 19.2338 94.8748 19.9563C94.6847 20.6915 94.3425 21.338 93.8354 21.9338C93.3411 22.5296 92.6313 22.9479 91.7186 23.2014C91.3637 23.3028 90.9835 23.3662 90.5652 23.3915C90.1469 23.4296 89.7666 23.4423 89.4117 23.4423H81.3121V12.3507Z" fill="#03110D"/>
<path id="Vector_5" d="M129.778 6V30.0085L113.829 6H106.804V42H113.829V18.0042L129.778 42H136.804V6H129.778Z" fill="#03110D"/>
</g>
</svg>
