<svg width="24" height="24" viewBox="0 0 24 24" fill="none" xmlns="http://www.w3.org/2000/svg">
<path d="M10.775 10.4L4.52498 7.7C4.12498 7.51667 3.87915 7.22083 3.78748 6.8125C3.69581 6.40417 3.80831 6.04167 4.12498 5.725L4.52498 5.325C4.65831 5.19167 4.82081 5.09167 5.01248 5.025C5.20415 4.95833 5.39998 4.94167 5.59998 4.975L14.6 6.575L17.7 3.45C18.0833 3.06667 18.5541 2.875 19.1125 2.875C19.6708 2.875 20.1416 3.06667 20.525 3.45C20.9083 3.83333 21.1 4.30417 21.1 4.8625C21.1 5.42083 20.9083 5.89167 20.525 6.275L17.425 9.4L19 18.375C19.0333 18.575 19.0208 18.775 18.9625 18.975C18.9041 19.175 18.8083 19.3417 18.675 19.475L18.275 19.85C17.9583 20.1667 17.5916 20.2833 17.175 20.2C16.7583 20.1167 16.4583 19.875 16.275 19.475L13.6 13.225L11.05 15.75L11.6 18.85C11.6333 19.0167 11.625 19.1792 11.575 19.3375C11.525 19.4958 11.4416 19.6333 11.325 19.75L10.9 20.175C10.6666 20.4083 10.3791 20.5 10.0375 20.45C9.69581 20.4 9.44165 20.225 9.27498 19.925L7.44998 16.55L4.07498 14.725C3.77498 14.5583 3.59998 14.3042 3.54998 13.9625C3.49998 13.6208 3.59165 13.3333 3.82498 13.1L4.24998 12.675C4.36665 12.5583 4.50415 12.475 4.66248 12.425C4.82081 12.375 4.98331 12.3667 5.14998 12.4L8.22498 12.925L10.775 10.4Z" fill="#03110D"/>
</svg>
