<svg width="24" height="24" viewBox="0 0 24 24" fill="none" xmlns="http://www.w3.org/2000/svg">
<path d="M12.2663 8.72344C12.3997 8.72344 12.5247 8.74427 12.6413 8.78594C12.758 8.8276 12.8663 8.89844 12.9663 8.99844L17.5663 13.5984C17.7497 13.7818 17.8413 14.0151 17.8413 14.2984C17.8413 14.5818 17.7497 14.8151 17.5663 14.9984C17.383 15.1818 17.1497 15.2734 16.8663 15.2734C16.583 15.2734 16.3497 15.1818 16.1663 14.9984L12.2663 11.0984L8.36634 14.9984C8.18301 15.1818 7.94967 15.2734 7.66634 15.2734C7.38301 15.2734 7.14967 15.1818 6.96634 14.9984C6.78301 14.8151 6.69134 14.5818 6.69134 14.2984C6.69134 14.0151 6.78301 13.7818 6.96634 13.5984L11.5663 8.99844C11.6663 8.89844 11.7747 8.8276 11.8913 8.78594C12.008 8.74427 12.133 8.72344 12.2663 8.72344Z" fill="#03110D"/>
</svg>
