<svg width="24" height="24" viewBox="0 0 24 24" fill="none" xmlns="http://www.w3.org/2000/svg">
<path d="M11.7337 15.2766C11.6004 15.2766 11.4754 15.2557 11.3587 15.2141C11.242 15.1724 11.1337 15.1016 11.0337 15.0016L6.43369 10.4016C6.25036 10.2182 6.15869 9.9849 6.15869 9.70156C6.15869 9.41823 6.25036 9.1849 6.43369 9.00156C6.61702 8.81823 6.85036 8.72656 7.13369 8.72656C7.41702 8.72656 7.65036 8.81823 7.83369 9.00156L11.7337 12.9016L15.6337 9.00156C15.817 8.81823 16.0504 8.72656 16.3337 8.72656C16.617 8.72656 16.8504 8.81823 17.0337 9.00156C17.217 9.1849 17.3087 9.41823 17.3087 9.70156C17.3087 9.9849 17.217 10.2182 17.0337 10.4016L12.4337 15.0016C12.3337 15.1016 12.2254 15.1724 12.1087 15.2141C11.992 15.2557 11.867 15.2766 11.7337 15.2766Z" fill="#03110D"/>
</svg>
