<svg width="16" height="16" viewBox="0 0 16 16" fill="none" xmlns="http://www.w3.org/2000/svg">
<path d="M2 14.5984V12.1984H14V14.5984H2ZM3.2 10.9984V8.44844L9.92 1.74344C10.03 1.63344 10.1575 1.54844 10.3025 1.48844C10.4475 1.42844 10.6 1.39844 10.76 1.39844C10.92 1.39844 11.075 1.42844 11.225 1.48844C11.375 1.54844 11.51 1.63844 11.63 1.75844L12.455 2.59844C12.575 2.70844 12.6625 2.83844 12.7175 2.98844C12.7725 3.13844 12.8 3.29344 12.8 3.45344C12.8 3.60344 12.7725 3.75094 12.7175 3.89594C12.6625 4.04094 12.575 4.17344 12.455 4.29344L5.75 10.9984H3.2ZM10.76 4.27844L11.6 3.43844L10.76 2.59844L9.92 3.43844L10.76 4.27844Z" fill="#03110D"/>
</svg>
