<svg width="24" height="24" viewBox="0 0 24 24" fill="none" xmlns="http://www.w3.org/2000/svg">
<path d="M12.6 17.9989L9.3 14.6989C9.2 14.5989 9.125 14.4864 9.075 14.3614C9.025 14.2364 9 14.1073 9 13.9739V9.99892C9 9.71558 9.09583 9.47808 9.2875 9.28642C9.47917 9.09475 9.71667 8.99892 10 8.99892C10.2833 8.99892 10.5208 9.09475 10.7125 9.28642C10.9042 9.47808 11 9.71558 11 9.99892V13.5989L14 16.5989C14.1833 16.7823 14.275 17.0156 14.275 17.2989C14.275 17.5823 14.1833 17.8156 14 17.9989C13.8167 18.1823 13.5833 18.2739 13.3 18.2739C13.0167 18.2739 12.7833 18.1823 12.6 17.9989ZM22.825 11.8239C22.5417 11.8739 22.2917 11.8156 22.075 11.6489C21.8583 11.4823 21.7083 11.2573 21.625 10.9739C21.125 9.00725 20.1958 7.28642 18.8375 5.81142C17.4792 4.33642 15.85 3.27392 13.95 2.62392C13.6833 2.54059 13.4833 2.37808 13.35 2.13642C13.2167 1.89475 13.1833 1.64058 13.25 1.37392C13.3333 1.09058 13.5083 0.890585 13.775 0.773918C14.0417 0.657252 14.3167 0.648918 14.6 0.748918C16.8333 1.51558 18.7458 2.76975 20.3375 4.51142C21.9292 6.25308 23.0167 8.28225 23.6 10.5989C23.6833 10.8823 23.6458 11.1448 23.4875 11.3864C23.3292 11.6281 23.1083 11.7739 22.825 11.8239ZM18.75 11.7489C18.4833 11.8156 18.2292 11.7823 17.9875 11.6489C17.7458 11.5156 17.575 11.3156 17.475 11.0489C17.1417 10.1823 16.6625 9.39892 16.0375 8.69892C15.4125 7.99892 14.6917 7.42392 13.875 6.97392C13.6417 6.84059 13.475 6.64475 13.375 6.38642C13.275 6.12809 13.275 5.87392 13.375 5.62392C13.475 5.35725 13.6542 5.17392 13.9125 5.07392C14.1708 4.97392 14.425 4.99058 14.675 5.12392C15.775 5.70725 16.7292 6.46558 17.5375 7.39892C18.3458 8.33225 18.9667 9.38225 19.4 10.5489C19.5 10.8156 19.4875 11.0656 19.3625 11.2989C19.2375 11.5323 19.0333 11.6823 18.75 11.7489ZM10.025 23.9989C8.64167 23.9989 7.34167 23.7364 6.125 23.2114C4.90833 22.6864 3.84583 21.9698 2.9375 21.0614C2.02917 20.1531 1.3125 19.0906 0.7875 17.8739C0.2625 16.6573 0 15.3656 0 13.9989C0 12.6156 0.2625 11.3156 0.7875 10.0989C1.3125 8.88225 2.02917 7.81975 2.9375 6.91142C3.84583 6.00309 4.90833 5.28642 6.125 4.76142C7.34167 4.23642 8.64167 3.97392 10.025 3.97392C10.3083 3.97392 10.5458 4.06975 10.7375 4.26142C10.9292 4.45308 11.025 4.69059 11.025 4.97392C11.025 5.25725 10.9292 5.49475 10.7375 5.68642C10.5458 5.87808 10.3083 5.97392 10.025 5.97392C7.79167 5.97392 5.89583 6.75308 4.3375 8.31142C2.77917 9.86975 2 11.7656 2 13.9989C2 16.2156 2.77917 18.1031 4.3375 19.6614C5.89583 21.2198 7.79167 21.9989 10.025 21.9989C12.2417 21.9989 14.1292 21.2198 15.6875 19.6614C17.2458 18.1031 18.025 16.2156 18.025 13.9989C18.025 13.7156 18.1208 13.4781 18.3125 13.2864C18.5042 13.0948 18.7417 12.9989 19.025 12.9989C19.3083 12.9989 19.5458 13.0948 19.7375 13.2864C19.9292 13.4781 20.025 13.7156 20.025 13.9989C20.025 15.3656 19.7625 16.6573 19.2375 17.8739C18.7125 19.0906 17.9958 20.1531 17.0875 21.0614C16.1792 21.9698 15.1208 22.6864 13.9125 23.2114C12.7042 23.7364 11.4083 23.9989 10.025 23.9989Z" fill="#03110D"/>
</svg>
