<svg width="40" height="40" viewBox="0 0 40 40" fill="none" xmlns="http://www.w3.org/2000/svg">
<path d="M6.66667 11.6654C6.19444 11.6654 5.79861 11.5056 5.47917 11.1862C5.15972 10.8668 5 10.4709 5 9.9987C5 9.52648 5.15972 9.13064 5.47917 8.8112C5.79861 8.49175 6.19444 8.33203 6.66667 8.33203H33.3333C33.8056 8.33203 34.2014 8.49175 34.5208 8.8112C34.8403 9.13064 35 9.52648 35 9.9987C35 10.4709 34.8403 10.8668 34.5208 11.1862C34.2014 11.5056 33.8056 11.6654 33.3333 11.6654H6.66667ZM6.66667 31.6654C6.19444 31.6654 5.79861 31.5056 5.47917 31.1862C5.15972 30.8668 5 30.4709 5 29.9987C5 29.5265 5.15972 29.1306 5.47917 28.8112C5.79861 28.4918 6.19444 28.332 6.66667 28.332H33.3333C33.8056 28.332 34.2014 28.4918 34.5208 28.8112C34.8403 29.1306 35 29.5265 35 29.9987C35 30.4709 34.8403 30.8668 34.5208 31.1862C34.2014 31.5056 33.8056 31.6654 33.3333 31.6654H6.66667ZM6.66667 21.6654C6.19444 21.6654 5.79861 21.5056 5.47917 21.1862C5.15972 20.8668 5 20.4709 5 19.9987C5 19.5265 5.15972 19.1306 5.47917 18.8112C5.79861 18.4918 6.19444 18.332 6.66667 18.332H33.3333C33.8056 18.332 34.2014 18.4918 34.5208 18.8112C34.8403 19.1306 35 19.5265 35 19.9987C35 20.4709 34.8403 20.8668 34.5208 21.1862C34.2014 21.5056 33.8056 21.6654 33.3333 21.6654H6.66667Z" fill="#03110D"/>
</svg>
