<svg width="28" height="28" viewBox="0 0 28 28" fill="none" xmlns="http://www.w3.org/2000/svg">
<path fill-rule="evenodd" clip-rule="evenodd" d="M8.21752 0.171821C5.93848 0.274651 3.96314 0.831847 2.36809 2.42016C0.767473 4.01682 0.217198 5.99999 0.114112 8.25532C0.050031 9.66299 -0.32468 20.2976 0.761902 23.0866C1.49465 24.9681 2.93782 26.4148 4.83655 27.1498C5.72253 27.4945 6.73392 27.7277 8.21752 27.7958C20.6227 28.3572 25.2211 28.0516 27.1602 23.0866C27.5043 22.2028 27.7412 21.1923 27.8066 19.7123C28.3736 7.27539 27.7147 4.57961 25.5527 2.42016C23.8378 0.709557 21.8207 -0.454889 8.21752 0.171821ZM8.33172 25.2946C6.97349 25.2334 6.23658 25.0071 5.74483 24.8167C4.5078 24.3359 3.57864 23.4106 3.10082 22.1808C2.27334 20.0617 2.54779 9.99673 2.62162 8.36811C2.69406 6.77284 3.01724 5.31487 4.14283 4.1893C5.53588 2.79969 7.33569 2.11865 19.5904 2.67172C21.1896 2.74398 22.6509 3.0665 23.7793 4.1893C25.1724 5.5789 25.8633 7.39256 25.3005 19.6002C25.2392 20.9551 25.0122 21.6903 24.8213 22.1808C23.5606 25.4116 20.6602 25.8601 8.33172 25.2946ZM19.7255 6.56547C19.7255 7.4854 20.4736 8.23344 21.3972 8.23344C22.3208 8.23344 23.0703 7.4854 23.0703 6.56547C23.0703 5.64556 22.3208 4.89819 21.3972 4.89819C20.4736 4.89819 19.7255 5.64556 19.7255 6.56547ZM6.80773 13.9832C6.80773 17.9241 10.0104 21.1192 13.9611 21.1192C17.9118 21.1192 21.1144 17.9241 21.1144 13.9832C21.1144 10.0422 17.9118 6.84917 13.9611 6.84917C10.0104 6.84917 6.80773 10.0422 6.80773 13.9832ZM9.31802 13.9832C9.31802 11.4263 11.3965 9.3518 13.9611 9.3518C16.5257 9.3518 18.6041 11.4263 18.6041 13.9832C18.6041 16.5414 16.5257 18.6165 13.9611 18.6165C11.3965 18.6165 9.31802 16.5414 9.31802 13.9832Z" fill="white"/>
</svg>
