<svg width="28" height="28" viewBox="0 0 28 28" fill="none" xmlns="http://www.w3.org/2000/svg">
<path d="M24.8889 0C25.714 0 26.5053 0.327777 27.0888 0.911223C27.6722 1.49467 28 2.28599 28 3.11111V24.8889C28 25.714 27.6722 26.5053 27.0888 27.0888C26.5053 27.6722 25.714 28 24.8889 28H3.11111C2.28599 28 1.49467 27.6722 0.911223 27.0888C0.327777 26.5053 0 25.714 0 24.8889V3.11111C0 2.28599 0.327777 1.49467 0.911223 0.911223C1.49467 0.327777 2.28599 0 3.11111 0H24.8889ZM24.1111 24.1111V15.8667C24.1111 14.5217 23.5768 13.2319 22.6258 12.2808C21.6748 11.3298 20.3849 10.7956 19.04 10.7956C18.3208 10.8203 17.6179 11.0168 16.9901 11.3686C16.3623 11.7204 15.8277 12.2173 15.4311 12.8178V11.0911H11.0911V24.1111H15.4311V16.4422C15.4057 16.1418 15.4429 15.8394 15.5403 15.5541C15.6378 15.2688 15.7935 15.0069 15.9975 14.7849C16.2015 14.5629 16.4493 14.3856 16.7254 14.2644C17.0014 14.1432 17.2996 14.0806 17.6011 14.0806C17.9026 14.0806 18.2008 14.1432 18.4768 14.2644C18.7529 14.3856 19.0007 14.5629 19.2047 14.7849C19.4087 15.0069 19.5644 15.2688 19.6619 15.5541C19.7594 15.8394 19.7966 16.1418 19.7711 16.4422V24.1111H24.1111ZM6.03556 8.64889C6.72865 8.64889 7.39337 8.37356 7.88346 7.88346C8.37356 7.39337 8.64889 6.72865 8.64889 6.03556C8.67673 5.67437 8.62963 5.31133 8.51053 4.9692C8.39144 4.62708 8.20292 4.31327 7.9568 4.04745C7.71069 3.78163 7.41229 3.56955 7.08034 3.42451C6.74839 3.27946 6.39004 3.20459 6.02778 3.20459C5.66552 3.20459 5.30717 3.27946 4.97522 3.42451C4.64326 3.56955 4.34487 3.78163 4.09875 4.04745C3.85264 4.31327 3.66412 4.62708 3.54502 4.9692C3.42593 5.31133 3.37882 5.67437 3.40667 6.03556C3.41078 6.73008 3.68956 7.39476 4.18213 7.88441C4.6747 8.37407 5.34102 8.6489 6.03556 8.64889ZM8.19778 24.1111V11.0911H3.88889V24.1111H8.19778Z" fill="white"/>
</svg>
