<svg width="24" height="24" viewBox="0 0 24 24" fill="none" xmlns="http://www.w3.org/2000/svg">
<path d="M6 22.25C5.45 22.25 4.97917 22.0542 4.5875 21.6625C4.19583 21.2708 4 20.8 4 20.25V10.25C4 9.7 4.19583 9.22917 4.5875 8.8375C4.97917 8.44583 5.45 8.25 6 8.25H7V6.25C7 4.86667 7.4875 3.6875 8.4625 2.7125C9.4375 1.7375 10.6167 1.25 12 1.25C13.3833 1.25 14.5625 1.7375 15.5375 2.7125C16.5125 3.6875 17 4.86667 17 6.25V8.25H18C18.55 8.25 19.0208 8.44583 19.4125 8.8375C19.8042 9.22917 20 9.7 20 10.25V20.25C20 20.8 19.8042 21.2708 19.4125 21.6625C19.0208 22.0542 18.55 22.25 18 22.25H6ZM12 17.25C12.55 17.25 13.0208 17.0542 13.4125 16.6625C13.8042 16.2708 14 15.8 14 15.25C14 14.7 13.8042 14.2292 13.4125 13.8375C13.0208 13.4458 12.55 13.25 12 13.25C11.45 13.25 10.9792 13.4458 10.5875 13.8375C10.1958 14.2292 10 14.7 10 15.25C10 15.8 10.1958 16.2708 10.5875 16.6625C10.9792 17.0542 11.45 17.25 12 17.25ZM9 8.25H15V6.25C15 5.41667 14.7083 4.70833 14.125 4.125C13.5417 3.54167 12.8333 3.25 12 3.25C11.1667 3.25 10.4583 3.54167 9.875 4.125C9.29167 4.70833 9 5.41667 9 6.25V8.25Z" fill="#03110D"/>
</svg>
