<svg width="16" height="16" viewBox="0 0 16 16" fill="none" xmlns="http://www.w3.org/2000/svg">
<path d="M4.66671 13.9987C4.30004 13.9987 3.98615 13.8681 3.72504 13.607C3.46393 13.3459 3.33337 13.032 3.33337 12.6654V5.33203C3.33337 4.96536 3.46393 4.65148 3.72504 4.39036C3.98615 4.12925 4.30004 3.9987 4.66671 3.9987H6.00004V2.66536C6.00004 2.2987 6.1306 1.98481 6.39171 1.7237C6.65282 1.46259 6.96671 1.33203 7.33337 1.33203H8.66671C9.03337 1.33203 9.34726 1.46259 9.60837 1.7237C9.86948 1.98481 10 2.2987 10 2.66536V3.9987H11.3334C11.7 3.9987 12.0139 4.12925 12.275 4.39036C12.5362 4.65148 12.6667 4.96536 12.6667 5.33203V12.6654C12.6667 13.032 12.5362 13.3459 12.275 13.607C12.0139 13.8681 11.7 13.9987 11.3334 13.9987C11.3334 14.1876 11.2695 14.3459 11.1417 14.4737C11.0139 14.6015 10.8556 14.6654 10.6667 14.6654C10.4778 14.6654 10.3195 14.6015 10.1917 14.4737C10.0639 14.3459 10 14.1876 10 13.9987H6.00004C6.00004 14.1876 5.93615 14.3459 5.80837 14.4737C5.6806 14.6015 5.52226 14.6654 5.33337 14.6654C5.14448 14.6654 4.98615 14.6015 4.85837 14.4737C4.7306 14.3459 4.66671 14.1876 4.66671 13.9987ZM6.66671 5.9987C6.47782 5.9987 6.31948 6.06259 6.19171 6.19036C6.06393 6.31814 6.00004 6.47648 6.00004 6.66536V11.332C6.00004 11.5209 6.06393 11.6793 6.19171 11.807C6.31948 11.9348 6.47782 11.9987 6.66671 11.9987C6.8556 11.9987 7.01393 11.9348 7.14171 11.807C7.26948 11.6793 7.33337 11.5209 7.33337 11.332V6.66536C7.33337 6.47648 7.26948 6.31814 7.14171 6.19036C7.01393 6.06259 6.8556 5.9987 6.66671 5.9987ZM9.33337 5.9987C9.14448 5.9987 8.98615 6.06259 8.85837 6.19036C8.7306 6.31814 8.66671 6.47648 8.66671 6.66536V11.332C8.66671 11.5209 8.7306 11.6793 8.85837 11.807C8.98615 11.9348 9.14448 11.9987 9.33337 11.9987C9.52226 11.9987 9.6806 11.9348 9.80837 11.807C9.93615 11.6793 10 11.5209 10 11.332V6.66536C10 6.47648 9.93615 6.31814 9.80837 6.19036C9.6806 6.06259 9.52226 5.9987 9.33337 5.9987ZM7.33337 3.9987H8.66671V2.66536H7.33337V3.9987Z" fill="#03110D"/>
</svg>
