<svg width="16" height="16" viewBox="0 0 16 16" fill="none" xmlns="http://www.w3.org/2000/svg">
<path d="M0.666626 11.468C0.666626 11.0902 0.763848 10.743 0.958293 10.4263C1.15274 10.1096 1.41107 9.86797 1.73329 9.7013C2.42218 9.35686 3.12218 9.09852 3.83329 8.9263C4.5444 8.75408 5.26663 8.66797 5.99996 8.66797C6.73329 8.66797 7.45551 8.75408 8.16663 8.9263C8.87774 9.09852 9.57774 9.35686 10.2666 9.7013C10.5888 9.86797 10.8472 10.1096 11.0416 10.4263C11.2361 10.743 11.3333 11.0902 11.3333 11.468V12.0013C11.3333 12.368 11.2027 12.6819 10.9416 12.943C10.6805 13.2041 10.3666 13.3346 9.99996 13.3346H1.99996C1.63329 13.3346 1.3194 13.2041 1.05829 12.943C0.797182 12.6819 0.666626 12.368 0.666626 12.0013V11.468ZM12.3 13.3346C12.4222 13.1346 12.5138 12.9207 12.575 12.693C12.6361 12.4652 12.6666 12.2346 12.6666 12.0013V11.3346C12.6666 10.8457 12.5305 10.3763 12.2583 9.9263C11.9861 9.4763 11.6 9.09019 11.1 8.76797C11.6666 8.83464 12.2 8.94852 12.7 9.10964C13.2 9.27075 13.6666 9.46797 14.1 9.7013C14.5 9.92352 14.8055 10.1707 15.0166 10.443C15.2277 10.7152 15.3333 11.0124 15.3333 11.3346V12.0013C15.3333 12.368 15.2027 12.6819 14.9416 12.943C14.6805 13.2041 14.3666 13.3346 14 13.3346H12.3ZM5.99996 8.0013C5.26663 8.0013 4.63885 7.74019 4.11663 7.21797C3.5944 6.69575 3.33329 6.06797 3.33329 5.33464C3.33329 4.6013 3.5944 3.97352 4.11663 3.4513C4.63885 2.92908 5.26663 2.66797 5.99996 2.66797C6.73329 2.66797 7.36107 2.92908 7.88329 3.4513C8.40552 3.97352 8.66663 4.6013 8.66663 5.33464C8.66663 6.06797 8.40552 6.69575 7.88329 7.21797C7.36107 7.74019 6.73329 8.0013 5.99996 8.0013ZM12.6666 5.33464C12.6666 6.06797 12.4055 6.69575 11.8833 7.21797C11.3611 7.74019 10.7333 8.0013 9.99996 8.0013C9.87774 8.0013 9.72218 7.98741 9.53329 7.95964C9.3444 7.93186 9.18885 7.9013 9.06663 7.86797C9.36663 7.51241 9.59718 7.11797 9.75829 6.68464C9.9194 6.2513 9.99996 5.8013 9.99996 5.33464C9.99996 4.86797 9.9194 4.41797 9.75829 3.98464C9.59718 3.5513 9.36663 3.15686 9.06663 2.8013C9.22218 2.74575 9.37774 2.70964 9.53329 2.69297C9.68885 2.6763 9.8444 2.66797 9.99996 2.66797C10.7333 2.66797 11.3611 2.92908 11.8833 3.4513C12.4055 3.97352 12.6666 4.6013 12.6666 5.33464Z" fill="#03110D"/>
</svg>
