<svg width="26" height="28" viewBox="0 0 26 28" fill="none" xmlns="http://www.w3.org/2000/svg">
<path d="M13.2353 0.0233443C14.8184 8.87033e-08 16.3899 0.012139 17.9604 0C18.0127 1.89648 18.8095 3.60342 20.0774 4.86774L20.0754 4.86587C21.44 6.05269 23.2155 6.82212 25.1729 6.95285L25.2 6.95471V11.6572C23.3509 11.6124 21.6121 11.2006 20.0445 10.4928L20.1238 10.5245C19.3656 10.1725 18.7244 9.81111 18.1152 9.40772L18.1655 9.43947C18.1538 12.8468 18.1771 16.2541 18.1413 19.6493C18.0417 21.3796 17.4459 22.9576 16.4905 24.2752L16.5098 24.2462C14.9122 26.4555 12.3243 27.9057 9.38145 27.9916H9.36791C9.24896 27.9972 9.10874 28 8.96754 28C7.29449 28 5.73072 27.5499 4.39808 26.7684L4.43677 26.7898C2.01133 25.3808 0.338277 22.9698 0.028811 20.1657L0.0249428 20.1274C0.000765738 19.5438 -0.0108393 18.9602 0.0133377 18.3887C0.487208 13.9262 4.3594 10.4741 9.06618 10.4741C9.59518 10.4741 10.1135 10.518 10.6174 10.6011L10.5632 10.5936C10.5874 12.3201 10.5149 14.0476 10.5149 15.7742C10.1058 15.6313 9.63386 15.5482 9.14162 15.5482C7.33511 15.5482 5.79842 16.6631 5.22977 18.2197L5.22107 18.2477C5.09245 18.6464 5.01798 19.1049 5.01798 19.5793C5.01798 19.7716 5.03056 19.9621 5.05377 20.1489L5.05183 20.1265C5.3729 22.037 7.06916 23.4787 9.11454 23.4787C9.17353 23.4787 9.23156 23.4778 9.28958 23.475H9.28088C10.6957 23.4339 11.9239 22.699 12.6183 21.613L12.6279 21.5962C12.8862 21.2488 13.0631 20.8287 13.1221 20.372L13.1231 20.359C13.244 18.2701 13.1956 16.1934 13.2072 14.1046C13.2188 9.40212 13.1956 4.71087 13.2314 0.020543L13.2353 0.0233443Z" fill="white"/>
</svg>
