<svg width="16" height="16" viewBox="0 0 16 16" fill="none" xmlns="http://www.w3.org/2000/svg">
<path d="M4.23338 13.8693L4.78338 12.6359C4.62783 12.5137 4.47783 12.3943 4.33338 12.2776C4.18894 12.1609 4.05005 12.0359 3.91672 11.9026C3.82783 11.9359 3.74172 11.9609 3.65838 11.9776C3.57505 11.9943 3.48338 12.0026 3.38338 12.0026C3.01672 12.0026 2.70283 11.872 2.44172 11.6109C2.1806 11.3498 2.05005 11.0359 2.05005 10.6693C2.05005 10.447 2.09727 10.2443 2.19172 10.0609C2.28616 9.8776 2.41672 9.72483 2.58338 9.6026C2.49449 9.34705 2.43338 9.08872 2.40005 8.8276C2.36672 8.56649 2.35005 8.29149 2.35005 8.0026C2.35005 7.71372 2.36672 7.43871 2.40005 7.1776C2.43338 6.91649 2.49449 6.65816 2.58338 6.4026C2.41672 6.28038 2.28616 6.1276 2.19172 5.94427C2.09727 5.76094 2.05005 5.55816 2.05005 5.33594C2.05005 4.96927 2.1806 4.65538 2.44172 4.39427C2.70283 4.13316 3.01672 4.0026 3.38338 4.0026C3.48338 4.0026 3.57505 4.01094 3.65838 4.0276C3.74172 4.04427 3.82783 4.06927 3.91672 4.1026C4.28338 3.7026 4.70283 3.36927 5.17505 3.1026C5.64727 2.83594 6.15005 2.63594 6.68338 2.5026C6.73894 2.16927 6.89172 1.89149 7.14172 1.66927C7.39172 1.44705 7.68338 1.33594 8.01672 1.33594C8.35005 1.33594 8.64172 1.44983 8.89172 1.6776C9.14172 1.90538 9.29449 2.18038 9.35005 2.5026C9.88338 2.63594 10.3862 2.83316 10.8584 3.09427C11.3306 3.35538 11.75 3.68038 12.1167 4.06927C12.2056 4.03594 12.2889 4.01094 12.3667 3.99427C12.4445 3.9776 12.5278 3.96927 12.6167 3.96927C12.9834 3.96927 13.2973 4.09983 13.5584 4.36094C13.8195 4.62205 13.95 4.93594 13.95 5.3026C13.95 5.52483 13.9056 5.72205 13.8167 5.89427C13.7278 6.06649 13.6056 6.21372 13.45 6.33594C13.5389 6.6026 13.6 6.87483 13.6334 7.1526C13.6667 7.43038 13.6834 7.71372 13.6834 8.0026C13.6834 8.29149 13.6667 8.57205 13.6334 8.84427C13.6 9.11649 13.5389 9.38038 13.45 9.63594C13.6056 9.75816 13.7278 9.90538 13.8167 10.0776C13.9056 10.2498 13.95 10.447 13.95 10.6693C13.95 11.0359 13.8195 11.3498 13.5584 11.6109C13.2973 11.872 12.9834 12.0026 12.6167 12.0026C12.5278 12.0026 12.4445 11.9943 12.3667 11.9776C12.2889 11.9609 12.2056 11.9359 12.1167 11.9026C11.9834 12.0359 11.8473 12.1665 11.7084 12.2943C11.5695 12.422 11.4167 12.547 11.25 12.6693L11.7667 13.8859C11.8556 14.0748 11.8417 14.2526 11.725 14.4193C11.6084 14.5859 11.45 14.6693 11.25 14.6693C11.1278 14.6693 11.0223 14.6359 10.9334 14.5693C10.8445 14.5026 10.7778 14.4193 10.7334 14.3193L10.25 13.2026C10.0945 13.2693 9.94449 13.3276 9.80005 13.3776C9.6556 13.4276 9.5056 13.4693 9.35005 13.5026C9.29449 13.8248 9.14172 14.0998 8.89172 14.3276C8.64172 14.5554 8.35005 14.6693 8.01672 14.6693C7.68338 14.6693 7.39172 14.5582 7.14172 14.3359C6.89172 14.1137 6.73894 13.8359 6.68338 13.5026C6.51672 13.4693 6.35838 13.4276 6.20838 13.3776C6.05838 13.3276 5.9056 13.2693 5.75005 13.2026L5.26672 14.3359C5.22227 14.4359 5.15283 14.5165 5.05838 14.5776C4.96394 14.6387 4.86116 14.6693 4.75005 14.6693C4.55005 14.6693 4.39172 14.5832 4.27505 14.4109C4.15838 14.2387 4.14449 14.0582 4.23338 13.8693ZM5.15005 11.7693L6.18338 9.43594C6.02783 9.23594 5.9056 9.01372 5.81672 8.76927C5.72783 8.52483 5.68338 8.26927 5.68338 8.0026C5.68338 7.36927 5.91394 6.82205 6.37505 6.36094C6.83616 5.89983 7.38338 5.66927 8.01672 5.66927C8.65005 5.66927 9.19727 5.89983 9.65838 6.36094C10.1195 6.82205 10.35 7.36927 10.35 8.0026C10.35 8.26927 10.3028 8.53038 10.2084 8.78594C10.1139 9.04149 9.98338 9.26927 9.81672 9.46927L10.85 11.7693C10.95 11.6804 11.0473 11.5998 11.1417 11.5276C11.2362 11.4554 11.3278 11.3693 11.4167 11.2693C11.3612 11.1804 11.325 11.0832 11.3084 10.9776C11.2917 10.872 11.2834 10.7693 11.2834 10.6693C11.2834 10.3137 11.4056 10.0082 11.65 9.7526C11.8945 9.49705 12.1945 9.35816 12.55 9.33594C12.6167 9.11371 12.6667 8.89427 12.7 8.6776C12.7334 8.46094 12.75 8.23594 12.75 8.0026C12.75 7.76927 12.7334 7.53872 12.7 7.31094C12.6667 7.08316 12.6167 6.85816 12.55 6.63594C12.1945 6.61372 11.8945 6.47483 11.65 6.21927C11.4056 5.96372 11.2834 5.65816 11.2834 5.3026C11.2834 5.2026 11.2973 5.10538 11.325 5.01094C11.3528 4.91649 11.3834 4.82483 11.4167 4.73594C11.0945 4.41372 10.7389 4.14149 10.35 3.91927C9.96116 3.69705 9.55005 3.52483 9.11672 3.4026C8.99449 3.59149 8.83894 3.73872 8.65005 3.84427C8.46116 3.94983 8.25005 4.0026 8.01672 4.0026C7.78338 4.0026 7.57227 3.94983 7.38338 3.84427C7.19449 3.73872 7.03894 3.59149 6.91672 3.4026C6.46116 3.52483 6.03894 3.69983 5.65005 3.9276C5.26116 4.15538 4.9056 4.43594 4.58338 4.76927C4.61672 4.85816 4.64727 4.94983 4.67505 5.04427C4.70283 5.13872 4.71672 5.23594 4.71672 5.33594C4.71672 5.69149 4.60005 5.99427 4.36672 6.24427C4.13338 6.49427 3.83894 6.63594 3.48338 6.66927C3.41672 6.89149 3.36672 7.11094 3.33338 7.3276C3.30005 7.54427 3.28338 7.76927 3.28338 8.0026C3.28338 8.23594 3.30005 8.46094 3.33338 8.6776C3.36672 8.89427 3.41672 9.11371 3.48338 9.33594C3.83894 9.35816 4.13338 9.49705 4.36672 9.7526C4.60005 10.0082 4.71672 10.3137 4.71672 10.6693C4.71672 10.7693 4.70838 10.8665 4.69172 10.9609C4.67505 11.0554 4.63894 11.147 4.58338 11.2359C4.67227 11.3359 4.76394 11.4276 4.85838 11.5109C4.95283 11.5943 5.05005 11.6804 5.15005 11.7693ZM6.15005 12.3359C6.27227 12.3915 6.39727 12.4415 6.52505 12.4859C6.65283 12.5304 6.78338 12.5693 6.91672 12.6026C7.03894 12.4137 7.19449 12.2665 7.38338 12.1609C7.57227 12.0554 7.78338 12.0026 8.01672 12.0026C8.25005 12.0026 8.46116 12.0554 8.65005 12.1609C8.83894 12.2665 8.99449 12.4137 9.11672 12.6026C9.25005 12.5693 9.37505 12.5304 9.49172 12.4859C9.60838 12.4415 9.72783 12.3915 9.85005 12.3359L8.88338 10.1693C8.75005 10.2248 8.61116 10.2665 8.46672 10.2943C8.32227 10.322 8.17227 10.3359 8.01672 10.3359C7.85005 10.3359 7.69172 10.3193 7.54172 10.2859C7.39172 10.2526 7.25005 10.2026 7.11672 10.1359L6.15005 12.3359Z" fill="#03110D"/>
</svg>
