<svg width="24" height="24" viewBox="0 0 24 24" fill="none" xmlns="http://www.w3.org/2000/svg">
<path d="M4 15.5V6C4 4.61667 4.64167 3.60417 5.925 2.9625C7.20833 2.32083 9.23333 2 12 2C14.8667 2 16.9167 2.30833 18.15 2.925C19.3833 3.54167 20 4.56667 20 6V15.5C20 16.4833 19.6625 17.3125 18.9875 17.9875C18.3125 18.6625 17.4833 19 16.5 19L18.125 20.075C18.325 20.2083 18.3917 20.3958 18.325 20.6375C18.2583 20.8792 18.1 21 17.85 21H6.15C5.9 21 5.74167 20.8792 5.675 20.6375C5.60833 20.3958 5.675 20.2083 5.875 20.075L7.5 19C6.51667 19 5.6875 18.6625 5.0125 17.9875C4.3375 17.3125 4 16.4833 4 15.5ZM6 10H18V7H6V10ZM12 16C12.4167 16 12.7708 15.8542 13.0625 15.5625C13.3542 15.2708 13.5 14.9167 13.5 14.5C13.5 14.0833 13.3542 13.7292 13.0625 13.4375C12.7708 13.1458 12.4167 13 12 13C11.5833 13 11.2292 13.1458 10.9375 13.4375C10.6458 13.7292 10.5 14.0833 10.5 14.5C10.5 14.9167 10.6458 15.2708 10.9375 15.5625C11.2292 15.8542 11.5833 16 12 16Z" fill="#03110D"/>
</svg>
