<svg width="48" height="48" viewBox="0 0 48 48" fill="none" xmlns="http://www.w3.org/2000/svg">
<path d="M12 38V39C12 39.8333 11.7083 40.5417 11.125 41.125C10.5417 41.7083 9.83333 42 9 42C8.16667 42 7.45833 41.7083 6.875 41.125C6.29167 40.5417 6 39.8333 6 39V24.7C6 24.4667 6.01667 24.2333 6.05 24C6.08333 23.7667 6.13333 23.55 6.2 23.35L9.95 12.7C10.2167 11.9 10.7 11.25 11.4 10.75C12.1 10.25 12.8833 10 13.75 10H34.25C35.1167 10 35.9 10.25 36.6 10.75C37.3 11.25 37.7833 11.9 38.05 12.7L41.8 23.35C41.8667 23.55 41.9167 23.7667 41.95 24C41.9833 24.2333 42 24.4667 42 24.7V39C42 39.8333 41.7083 40.5417 41.125 41.125C40.5417 41.7083 39.8333 42 39 42C38.1667 42 37.4583 41.7083 36.875 41.125C36.2917 40.5417 36 39.8333 36 39V38H12ZM11.6 20H36.4L34.3 14H13.7L11.6 20ZM15 32C15.8333 32 16.5417 31.7083 17.125 31.125C17.7083 30.5417 18 29.8333 18 29C18 28.1667 17.7083 27.4583 17.125 26.875C16.5417 26.2917 15.8333 26 15 26C14.1667 26 13.4583 26.2917 12.875 26.875C12.2917 27.4583 12 28.1667 12 29C12 29.8333 12.2917 30.5417 12.875 31.125C13.4583 31.7083 14.1667 32 15 32ZM33 32C33.8333 32 34.5417 31.7083 35.125 31.125C35.7083 30.5417 36 29.8333 36 29C36 28.1667 35.7083 27.4583 35.125 26.875C34.5417 26.2917 33.8333 26 33 26C32.1667 26 31.4583 26.2917 30.875 26.875C30.2917 27.4583 30 28.1667 30 29C30 29.8333 30.2917 30.5417 30.875 31.125C31.4583 31.7083 32.1667 32 33 32Z" fill="#9B8262"/>
</svg>
