<svg width="48" height="48" viewBox="0 0 48 48" fill="none" xmlns="http://www.w3.org/2000/svg">
<path d="M36 43.85C35.7667 43.85 35.5417 43.825 35.325 43.775C35.1083 43.725 34.9 43.6667 34.7 43.6C32.6333 42.7667 31 41.3833 29.8 39.45C28.6 37.5167 28 35.4 28 33.1V29.25C28 28.8833 28.0917 28.5333 28.275 28.2C28.4583 27.8667 28.7333 27.6167 29.1 27.45L35.1 24.45C35.3667 24.2833 35.6667 24.2 36 24.2C36.3333 24.2 36.6333 24.2833 36.9 24.45L42.9 27.45C43.2667 27.6167 43.5417 27.8667 43.725 28.2C43.9083 28.5333 44 28.8833 44 29.25V33.1C44 35.4 43.4 37.5167 42.2 39.45C41 41.3833 39.3667 42.7667 37.3 43.6C37.1 43.6667 36.8917 43.725 36.675 43.775C36.4583 43.825 36.2333 43.85 36 43.85ZM12 40C10.9 40 9.95833 39.6083 9.175 38.825C8.39167 38.0417 8 37.1 8 36V34.4C8 33.2667 8.29167 32.225 8.875 31.275C9.45833 30.325 10.2333 29.6 11.2 29.1C12.8667 28.2667 14.5833 27.6 16.35 27.1C18.1167 26.6 19.9167 26.2667 21.75 26.1C22.3833 26.0333 22.9167 26.2167 23.35 26.65C23.7833 27.0833 24 27.6167 24 28.25V33.1C24 33.8333 24.05 34.5583 24.15 35.275C24.25 35.9917 24.4 36.7 24.6 37.4C24.7667 38.0667 24.6667 38.6667 24.3 39.2C23.9333 39.7333 23.4333 40 22.8 40H12ZM24 24C21.8 24 19.9167 23.2167 18.35 21.65C16.7833 20.0833 16 18.2 16 16C16 13.8 16.7833 11.9167 18.35 10.35C19.9167 8.78333 21.8 8 24 8C26.2 8 28.0833 8.78333 29.65 10.35C31.2167 11.9167 32 13.8 32 16C32 18.2 31.2167 20.0833 29.65 21.65C28.0833 23.2167 26.2 24 24 24Z" fill="#9B8262"/>
</svg>
