<svg width="48" height="48" viewBox="0 0 48 48" fill="none" xmlns="http://www.w3.org/2000/svg">
<path d="M24 45C23.5667 45 23.15 44.9333 22.75 44.8C22.35 44.6667 21.9667 44.4667 21.6 44.2L9.6 35.2C9.1 34.8333 8.70833 34.3667 8.425 33.8C8.14167 33.2333 8 32.6333 8 32V8C8 6.9 8.39167 5.95833 9.175 5.175C9.95833 4.39167 10.9 4 12 4H36C37.1 4 38.0417 4.39167 38.825 5.175C39.6083 5.95833 40 6.9 40 8V32C40 32.6333 39.8583 33.2333 39.575 33.8C39.2917 34.3667 38.9 34.8333 38.4 35.2L26.4 44.2C26.0333 44.4667 25.65 44.6667 25.25 44.8C24.85 44.9333 24.4333 45 24 45ZM21.9 24.3L19.1 21.5C18.7 21.1 18.2333 20.9083 17.7 20.925C17.1667 20.9417 16.7 21.1333 16.3 21.5C15.9 21.9 15.6917 22.375 15.675 22.925C15.6583 23.475 15.85 23.95 16.25 24.35L20.5 28.6C20.9 29 21.3667 29.2 21.9 29.2C22.4333 29.2 22.9 29 23.3 28.6L31.8 20.1C32.2 19.7 32.3917 19.2333 32.375 18.7C32.3583 18.1667 32.1667 17.7 31.8 17.3C31.4 16.9 30.925 16.6917 30.375 16.675C29.825 16.6583 29.35 16.85 28.95 17.25L21.9 24.3Z" fill="#9B8262"/>
</svg>
