<svg width="32" height="40" viewBox="0 0 32 40" fill="none" xmlns="http://www.w3.org/2000/svg">
<path d="M23.872 25.1831L22.4355 22.2254L14.6612 23.7183L15.971 26.4366L22.5482 40H31.1111L23.872 25.1831ZM29.4633 7.12676C28.745 5.29577 27.6183 3.78873 26.0973 2.57746C24.5621 1.38028 22.6045 0.591549 20.2243 0.225352C19.7032 0.12676 19.1117 0.0704208 18.4498 0.0422518C17.8019 0.0140828 17.2667 0 16.8865 0H0V40H7.54891V26.4366H16.8865L20.2243 26.2254C21.5764 26.0141 22.8017 25.662 23.872 25.1831C25.6325 24.4084 27.0127 23.2817 28.0549 21.8169C29.7168 19.4366 30.5478 16.5775 30.5478 13.2254C30.5478 10.9859 30.1957 8.94366 29.4633 7.12676ZM7.54891 7.05634H16.5485C16.9428 7.05634 17.3653 7.07042 17.8301 7.11268C18.2949 7.14084 18.7174 7.22535 19.1117 7.33803C20.1257 7.60563 20.9144 8.07042 21.4637 8.73239C22.0271 9.39436 22.4073 10.1268 22.6186 10.9296C22.8298 11.7324 22.9425 12.493 22.9425 13.2254C22.9425 13.9577 22.8298 14.7042 22.6186 15.507C22.4073 16.3239 22.0271 17.0423 21.4637 17.7042C20.9144 18.3662 20.1257 18.831 19.1117 19.1127C18.7174 19.2254 18.2949 19.2958 17.8301 19.3239C17.3653 19.3662 16.9428 19.3803 16.5485 19.3803H7.54891V7.05634Z" fill="white"/>
</svg>
