<svg width="31" height="40" viewBox="0 0 31 40" fill="none" xmlns="http://www.w3.org/2000/svg">
<path d="M29.4787 22.966C28.7846 21.6932 27.8941 20.6776 26.8202 19.9058C25.7463 19.134 24.6201 18.5247 23.4546 18.0914C22.276 17.6581 21.2152 17.306 20.2461 17.0352L13.7899 15.2208C13.0041 15.0042 12.2184 14.7333 11.4719 14.4219C10.7124 14.0969 10.0838 13.6772 9.58613 13.1491C9.07539 12.621 8.82657 11.944 8.82657 11.1045C8.82657 10.1973 9.14087 9.41191 9.74328 8.76196C10.3588 8.09848 11.1576 7.59748 12.1267 7.24543C13.0958 6.89337 14.1304 6.74442 15.2435 6.78505C16.3567 6.81213 17.4305 7.05586 18.452 7.50269C19.4735 7.94953 20.364 8.59948 21.0973 9.45253C21.8438 10.3056 22.3545 11.3482 22.6295 12.5939L30.212 11.267C29.6096 8.85675 28.6274 6.82567 27.2786 5.16018C25.9166 3.49469 24.2272 2.23542 22.2105 1.35529C20.1937 0.488692 17.902 0.0283132 15.3352 0.00123209C12.7946 -0.025849 10.4635 0.39391 8.36822 1.21988C6.27289 2.0594 4.58353 3.33221 3.32633 5.03832C2.06914 6.75796 1.44054 8.89737 1.44054 11.4836C1.44054 13.3116 1.74175 14.8281 2.33106 16.0332C2.93346 17.2383 3.67992 18.1997 4.57044 18.9309C5.46095 19.6621 6.39075 20.2173 7.34675 20.6099C8.30274 21.0026 9.14087 21.3005 9.86114 21.5172L19.5258 24.4555C20.2461 24.6856 20.8485 24.9429 21.32 25.2273C21.7914 25.5116 22.1581 25.823 22.42 26.1345C22.6819 26.4595 22.8653 26.798 22.97 27.1636C23.0879 27.5292 23.1403 27.9083 23.1403 28.301C23.1403 29.3707 22.7867 30.2643 22.0926 30.9955C21.3985 31.7267 20.508 32.2819 19.4211 32.661C18.3341 33.0266 17.221 33.2162 16.0686 33.2162C13.9994 33.2162 12.1529 32.6204 10.5421 31.4288C8.91824 30.2373 7.85748 28.5312 7.33365 26.324L0 27.4479C0.379778 30.0477 1.28339 32.2819 2.69774 34.164C4.12518 36.0462 5.9324 37.4815 8.14559 38.4835C10.3588 39.499 12.847 40 15.5971 40C17.496 40 19.3294 39.7427 21.1104 39.2553C22.8915 38.7543 24.4892 37.996 25.9035 36.994C27.3178 35.992 28.4441 34.7192 29.2691 33.1756C30.1073 31.6319 30.5263 29.831 30.5263 27.7729C30.5263 25.823 30.1727 24.2253 29.4787 22.966Z" fill="white"/>
</svg>
