<svg width="38" height="40" viewBox="0 0 38 40" fill="none" xmlns="http://www.w3.org/2000/svg">
<path d="M37.306 11.9725V21.0776C36.9054 20.6366 36.4661 20.2475 35.9751 19.9103C34.9025 19.171 33.8042 18.5873 32.6412 18.1723C31.4911 17.7572 30.4315 17.42 29.4882 17.1606L23.1177 15.4226C22.3294 15.2151 21.567 14.9557 20.8175 14.6573C20.0681 14.3461 19.4478 13.944 18.9568 13.4382C18.4657 12.9323 18.2202 12.2838 18.2202 11.4797C18.2202 10.6107 18.5174 9.85839 19.1248 9.23582C19.7321 8.60028 20.5074 8.12039 21.4636 7.78316C22.4328 7.44594 23.4536 7.30326 24.5391 7.34218C25.6504 7.36812 26.6971 7.60158 27.7179 8.02959C28.7258 8.45761 29.5916 9.08017 30.3281 9.89729C31.0518 10.7144 31.5557 11.7131 31.8271 12.9064L37.306 11.9725Z" fill="white"/>
<path d="M12.8042 5.66796C11.5626 7.31517 10.9418 9.36446 10.9418 11.8418C10.9418 13.5927 11.2392 15.0454 11.8212 16.1997C12.4032 17.3541 13.1404 18.275 14.0329 18.9754C14.9123 19.6757 15.8306 20.2075 16.7748 20.5837C17.7189 20.9598 18.5467 21.2451 19.258 21.4527L28.79 24.2672C29.5143 24.4877 30.0963 24.7341 30.5619 25.0065C31.0404 25.2789 31.4026 25.5772 31.6483 25.8755C31.907 26.1868 32.088 26.511 32.2044 26.8612C32.3079 27.2114 32.3726 27.5746 32.3726 27.9507C32.3726 28.9754 32.0234 29.8314 31.3379 30.5318C30.6395 31.2322 29.76 31.7639 28.6995 32.1271C27.626 32.4773 26.5137 32.6589 25.3756 32.6589C23.3321 32.6589 21.5214 32.0882 19.9176 30.9468C18.3268 29.8055 17.2662 28.1712 16.7618 26.0571L9.50613 27.1336C9.8812 29.6239 10.7736 31.7639 12.1834 33.5668C13.5802 35.3696 15.3779 36.7445 17.5637 37.7043C19.7495 38.677 22.1939 39.1569 24.9229 39.1569C26.7853 39.1569 28.6089 38.9105 30.3679 38.4436C32.1268 37.9637 33.7047 37.2374 35.1016 36.2776C35.9552 35.6939 36.7053 34.9935 37.3391 34.2153V40H0V0H37.3391V6.96498C37.0545 6.54993 36.757 6.16083 36.4466 5.78469C35.1016 4.18936 33.4331 2.98314 31.4543 2.14007C29.4625 1.30998 27.1992 0.868998 24.6642 0.843058C22.1422 0.817118 19.8529 1.2192 17.7836 2.01038C15.7013 2.81453 14.0458 4.03372 12.8042 5.66796Z" fill="white"/>
</svg>
