<svg width="29" height="38" viewBox="0 0 29 38" fill="none" xmlns="http://www.w3.org/2000/svg">
<path d="M28.0047 21.8177C27.3453 20.6085 26.4994 19.6438 25.4792 18.9105C24.459 18.1773 23.3891 17.5985 22.2819 17.1868C21.1622 16.7752 20.1544 16.4407 19.2338 16.1835L13.1004 14.4598C12.3539 14.2539 11.6075 13.9967 10.8983 13.7008C10.1768 13.3921 9.57958 12.9933 9.10682 12.4916C8.62162 11.99 8.38524 11.3468 8.38524 10.5493C8.38524 9.6874 8.68383 8.94132 9.25612 8.32387C9.84084 7.69355 10.5997 7.21761 11.5204 6.88315C12.441 6.5487 13.4239 6.4072 14.4813 6.44579C15.5388 6.47152 16.559 6.70306 17.5294 7.12756C18.4998 7.55206 19.3458 8.1695 20.0425 8.9799C20.7516 9.79031 21.2368 10.7808 21.4981 11.9642L28.7014 10.7036C28.1291 8.41391 27.1961 6.48438 25.9146 4.90217C24.6208 3.31996 23.0159 2.12365 21.1 1.28752C19.184 0.464257 17.0069 0.0268975 14.5684 0.00117048C12.1549 -0.0245565 9.94037 0.374214 7.94981 1.15889C5.95924 1.95643 4.35436 3.1656 3.16002 4.7864C1.96568 6.42007 1.36851 8.4525 1.36851 10.9094C1.36851 12.646 1.65466 14.0867 2.2145 15.2316C2.78679 16.3764 3.49593 17.2897 4.34192 17.9844C5.1879 18.679 6.07121 19.2064 6.97941 19.5794C7.8876 19.9525 8.68383 20.2355 9.36808 20.4413L18.5495 23.2327C19.2338 23.4514 19.8061 23.6958 20.254 23.9659C20.7018 24.236 21.0502 24.5319 21.299 24.8278C21.5478 25.1365 21.722 25.4581 21.8215 25.8054C21.9335 26.1527 21.9833 26.5129 21.9833 26.8859C21.9833 27.9021 21.6474 28.7511 20.988 29.4458C20.3286 30.1404 19.4826 30.6678 18.45 31.028C17.4174 31.3753 16.3599 31.5554 15.2651 31.5554C13.2994 31.5554 11.5453 30.9894 10.015 29.8574C8.47233 28.7254 7.46461 27.1046 6.96697 25.0078L0 26.0755C0.360789 28.5453 1.21922 30.6678 2.56285 32.4558C3.91892 34.2438 5.63578 35.6074 7.73831 36.5593C9.84084 37.524 12.2046 38 14.8172 38C16.6212 38 18.3629 37.7556 20.0549 37.2925C21.7469 36.8166 23.2647 36.0962 24.6083 35.1443C25.952 34.1924 27.0219 32.9832 27.8057 31.5168C28.6019 30.0503 29 28.3395 29 26.3842C29 24.5319 28.6641 23.014 28.0047 21.8177Z" fill="#03110D"/>
</svg>
