<svg width="28" height="28" viewBox="0 0 28 28" fill="none" xmlns="http://www.w3.org/2000/svg">
<rect width="28" height="28" rx="5" fill="white"/>
<path fill-rule="evenodd" clip-rule="evenodd" d="M6.5 9.25C6.5 7.73122 7.73122 6.5 9.25 6.5H18.75C20.2688 6.5 21.5 7.73122 21.5 9.25V18.75C21.5 20.2688 20.2688 21.5 18.75 21.5H9.25C7.73122 21.5 6.5 20.2688 6.5 18.75V9.25ZM10.375 12.25C10.9963 12.25 11.5 11.7463 11.5 11.125C11.5 10.5037 10.9963 10 10.375 10C9.75368 10 9.25 10.5037 9.25 11.125C9.25 11.7463 9.75368 12.25 10.375 12.25ZM9.25 13.375V19H11.5V13.375H9.25ZM13.375 13.375V19H15.625V16.0625C15.625 15.0895 16.4145 14.3 17.3875 14.3C17.9088 14.3 18.3258 14.717 18.3258 15.2383V19H20.5V15C20.5 13.5188 19.2312 12.25 17.75 12.25C16.9167 12.25 16.1667 12.625 15.625 13.225V13.375H13.375Z" fill="#1E1E1E"/>
</svg>
