<svg width="28" height="28" viewBox="0 0 28 28" fill="none" xmlns="http://www.w3.org/2000/svg">
<rect width="28" height="28" rx="5" fill="white"/>
<path d="M20.0625 11.2441C19.0991 11.2441 18.2098 10.9306 17.4896 10.4011C16.6671 9.80344 16.0775 8.91669 15.8691 7.89158C15.8176 7.63867 15.7891 7.37695 15.7891 7.10938H13.3125V14.7559L13.3096 18.5742C13.3096 19.5376 12.6494 20.3486 11.7461 20.5801C11.4961 20.6436 11.2305 20.6592 10.959 20.6182C10.6084 20.5654 10.2832 20.4229 10.0127 20.2119C9.42383 19.7583 9.05469 19.0576 9.05469 18.2744C9.05469 16.9063 10.1631 15.7979 11.5312 15.7979C11.793 15.7979 12.0449 15.8408 12.2813 15.9189V13.3926C12.0332 13.3574 11.7803 13.3389 11.5225 13.3389C9.9707 13.3389 8.52344 14.0078 7.50586 15.1523C6.72852 16.0283 6.25 17.1797 6.25 18.4453C6.25 19.7822 6.78711 20.9893 7.66016 21.8701C8.60254 22.8213 9.90625 23.4082 11.3457 23.4082C11.4746 23.4082 11.6006 23.4023 11.7266 23.3916C13.0918 23.2803 14.3203 22.6602 15.2207 21.7021C16.2148 20.6494 16.8164 19.2383 16.8164 17.6865L16.8047 12.2061C17.376 12.6143 17.999 12.9453 18.667 13.1904C19.6709 13.5566 20.7578 13.709 21.875 13.6455V11.1924C21.2539 11.2939 20.6484 11.3037 20.0625 11.2441Z" fill="#1E1E1E"/>
</svg>
